<?xml version="1.0" encoding="UTF-8"?>
<svg id="Calque_2" data-name="Calque 2" xmlns="http://www.w3.org/2000/svg" xmlns:xlink="http://www.w3.org/1999/xlink" viewBox="0 0 40.69 41.18">
  <defs>
    <style>
      .cls-1, .cls-2, .cls-3, .cls-4, .cls-5 {
        stroke: #000;
        stroke-miterlimit: 10;
      }

      .cls-1, .cls-5 {
        fill: #ef7e67;
      }

      .cls-6 {
        clip-path: url(#clippath-2);
      }

      .cls-7 {
        isolation: isolate;
      }

      .cls-8 {
        clip-path: url(#clippath-1);
      }

      .cls-2, .cls-3, .cls-4, .cls-5 {
        stroke-width: 2px;
      }

      .cls-3 {
        fill: none;
      }

      .cls-9, .cls-4 {
        fill: #4a4a49;
      }

      .cls-10 {
        clip-path: url(#clippath);
      }
    </style>
    <clipPath id="clippath">
      <path class="cls-4" d="M14.19,38.82c-.19-.19-.37-.4-.52-.63-.78-1.14-1-2.6-.58-3.99.49-1.63,1.45-3.15,2.48-4.7,1.65-2.47,3.61-5.22,6.13-6.58,1.53-.83,2.75-.74,4.17-.64l.34.02c1.23.08,2.56-.94,2.92-2.23.09-.32.06-.64.02-1-.03-.29-.06-.62-.03-.98.08-.89.43-1.87.96-2.68.81-1.24,2.28-2.16,3.74-2.35,1.94-.25,3.85.66,4.97,2.35,1.11,1.68,1.19,3.77.21,5.46-.57,1.03-1.54,1.9-2.66,2.37h0c-.77.33-1.55.34-2.23.36-.6.01-1.16.03-1.68.23-.98.39-1.78,1.53-1.77,2.54,0,.32.01.63.02.93.05,1.4.09,2.72-.76,4.18-1.21,2.07-3.48,3.8-5.31,5.18l-.37.28c-2.32,1.77-4.79,3.39-7.07,3.21-1.16-.09-2.21-.57-2.98-1.35ZM37.2,15.46c-.86-.86-2.03-1.28-3.22-1.13-1.09.14-2.24.86-2.85,1.79-.42.64-.7,1.41-.76,2.1-.02.26,0,.51.03.75.04.43.09.91-.06,1.46-.51,1.85-2.4,3.27-4.22,3.15l-.35-.02c-1.37-.1-2.28-.16-3.49.49-2.25,1.22-4.11,3.82-5.67,6.17-.97,1.46-1.89,2.9-2.32,4.36-.3,1.02-.15,2.09.42,2.92.57.83,1.48,1.34,2.56,1.43,2.11.17,4.88-1.94,6.21-2.95l.37-.28c1.83-1.39,3.9-2.96,4.98-4.82.67-1.15.64-2.19.59-3.5-.01-.31-.02-.64-.02-.97,0-1.53,1.1-3.13,2.57-3.72.72-.29,1.43-.3,2.12-.32.63-.01,1.22-.03,1.77-.26.86-.37,1.61-1.03,2.06-1.83.76-1.3.69-2.85-.17-4.14-.16-.24-.34-.46-.54-.66Z"/>
    </clipPath>
    <clipPath id="clippath-1">
      <path class="cls-4" d="M19.03,52.65L.3,33.92,34.19.04l18.73,18.73L19.03,52.65ZM2.09,33.92l16.94,16.94L51.13,18.76,34.19,1.82,2.09,33.92Z"/>
    </clipPath>
    <clipPath id="clippath-2">
      <path class="cls-4" d="M19.03,43.73l-9.81-9.81,24.97-24.97,9.81,9.81-24.97,24.97ZM11,33.92l8.03,8.03,23.18-23.18-8.03-8.03-23.18,23.18Z"/>
    </clipPath>
  </defs>
  <g id="Contenu">
    <path class="cls-2" d="M19.41,12.28H1.98c-.15-.01-.3-.07-.4-.18-.11-.11-.17-.25-.17-.4v-1.15c0-.82.36-1.61.97-2.17.55-.5,1.26-.78,1.99-.78h0l12.65.02h0c1.63,0,2.95,1.33,2.95,2.96v1.14c0,.31-.26.57-.57.57ZM2.55,11.13h16.29s0-.56,0-.56c0-1-.82-1.82-1.82-1.82l-12.65-.02h0c-.45,0-.88.17-1.22.48-.38.35-.59.82-.6,1.33v.58Z"/>
    <path class="cls-5" d="M34.95,23.37l-5.6-5.6c-.22-.22-.22-.58,0-.8s.58-.22.8,0l5.6,5.6c.22.22.22.58,0,.8s-.58.22-.8,0Z"/>
    <g>
      <path class="cls-9" d="M14.19,38.82c-.19-.19-.37-.4-.52-.63-.78-1.14-1-2.6-.58-3.99.49-1.63,1.45-3.15,2.48-4.7,1.65-2.47,3.61-5.22,6.13-6.58,1.53-.83,2.75-.74,4.17-.64l.34.02c1.23.08,2.56-.94,2.92-2.23.09-.32.06-.64.02-1-.03-.29-.06-.62-.03-.98.08-.89.43-1.87.96-2.68.81-1.24,2.28-2.16,3.74-2.35,1.94-.25,3.85.66,4.97,2.35,1.11,1.68,1.19,3.77.21,5.46-.57,1.03-1.54,1.9-2.66,2.37h0c-.77.33-1.55.34-2.23.36-.6.01-1.16.03-1.68.23-.98.39-1.78,1.53-1.77,2.54,0,.32.01.63.02.93.05,1.4.09,2.72-.76,4.18-1.21,2.07-3.48,3.8-5.31,5.18l-.37.28c-2.32,1.77-4.79,3.39-7.07,3.21-1.16-.09-2.21-.57-2.98-1.35ZM37.2,15.46c-.86-.86-2.03-1.28-3.22-1.13-1.09.14-2.24.86-2.85,1.79-.42.64-.7,1.41-.76,2.1-.02.26,0,.51.03.75.04.43.09.91-.06,1.46-.51,1.85-2.4,3.27-4.22,3.15l-.35-.02c-1.37-.1-2.28-.16-3.49.49-2.25,1.22-4.11,3.82-5.67,6.17-.97,1.46-1.89,2.9-2.32,4.36-.3,1.02-.15,2.09.42,2.92.57.83,1.48,1.34,2.56,1.43,2.11.17,4.88-1.94,6.21-2.95l.37-.28c1.83-1.39,3.9-2.96,4.98-4.82.67-1.15.64-2.19.59-3.5-.01-.31-.02-.64-.02-.97,0-1.53,1.1-3.13,2.57-3.72.72-.29,1.43-.3,2.12-.32.63-.01,1.22-.03,1.77-.26.86-.37,1.61-1.03,2.06-1.83.76-1.3.69-2.85-.17-4.14-.16-.24-.34-.46-.54-.66Z"/>
      <g class="cls-10">
        <g class="cls-7">
          <g>
            <path class="cls-9" d="M19.03,52.65L.3,33.92,34.19.04l18.73,18.73L19.03,52.65ZM2.09,33.92l16.94,16.94L51.13,18.76,34.19,1.82,2.09,33.92Z"/>
            <g class="cls-8">
              <g>
                <path class="cls-9" d="M19.03,43.73l-9.81-9.81,24.97-24.97,9.81,9.81-24.97,24.97ZM11,33.92l8.03,8.03,23.18-23.18-8.03-8.03-23.18,23.18Z"/>
                <g class="cls-6">
                  <path class="cls-4" d="M18.62,52.17L.78,34.33,33.78,1.34l17.83,17.83L18.62,52.17ZM2.57,34.33l16.05,16.05,31.21-31.21L33.78,3.12,2.57,34.33Z"/>
                </g>
                <path class="cls-3" d="M19.03,43.73l-9.81-9.81,24.97-24.97,9.81,9.81-24.97,24.97ZM11,33.92l8.03,8.03,23.18-23.18-8.03-8.03-23.18,23.18Z"/>
              </g>
            </g>
            <path class="cls-3" d="M19.03,52.65L.3,33.92,34.19.04l18.73,18.73L19.03,52.65ZM2.09,33.92l16.94,16.94L51.13,18.76,34.19,1.82,2.09,33.92Z"/>
          </g>
        </g>
      </g>
      <path class="cls-3" d="M14.19,38.82c-.19-.19-.37-.4-.52-.63-.78-1.14-1-2.6-.58-3.99.49-1.63,1.45-3.15,2.48-4.7,1.65-2.47,3.61-5.22,6.13-6.58,1.53-.83,2.75-.74,4.17-.64l.34.02c1.23.08,2.56-.94,2.92-2.23.09-.32.06-.64.02-1-.03-.29-.06-.62-.03-.98.08-.89.43-1.87.96-2.68.81-1.24,2.28-2.16,3.74-2.35,1.94-.25,3.85.66,4.97,2.35,1.11,1.68,1.19,3.77.21,5.46-.57,1.03-1.54,1.9-2.66,2.37h0c-.77.33-1.55.34-2.23.36-.6.01-1.16.03-1.68.23-.98.39-1.78,1.53-1.77,2.54,0,.32.01.63.02.93.05,1.4.09,2.72-.76,4.18-1.21,2.07-3.48,3.8-5.31,5.18l-.37.28c-2.32,1.77-4.79,3.39-7.07,3.21-1.16-.09-2.21-.57-2.98-1.35ZM37.2,15.46c-.86-.86-2.03-1.28-3.22-1.13-1.09.14-2.24.86-2.85,1.79-.42.64-.7,1.41-.76,2.1-.02.26,0,.51.03.75.04.43.09.91-.06,1.46-.51,1.85-2.4,3.27-4.22,3.15l-.35-.02c-1.37-.1-2.28-.16-3.49.49-2.25,1.22-4.11,3.82-5.67,6.17-.97,1.46-1.89,2.9-2.32,4.36-.3,1.02-.15,2.09.42,2.92.57.83,1.48,1.34,2.56,1.43,2.11.17,4.88-1.94,6.21-2.95l.37-.28c1.83-1.39,3.9-2.96,4.98-4.82.67-1.15.64-2.19.59-3.5-.01-.31-.02-.64-.02-.97,0-1.53,1.1-3.13,2.57-3.72.72-.29,1.43-.3,2.12-.32.63-.01,1.22-.03,1.77-.26.86-.37,1.61-1.03,2.06-1.83.76-1.3.69-2.85-.17-4.14-.16-.24-.34-.46-.54-.66Z"/>
    </g>
    <path class="cls-4" d="M10.15,36.53l.61-1.08h-6.42c-1,0-1.81-.83-1.82-1.83v-1.95s10.39,0,10.39,0l1.07-1.14H2.53s.02-18.28.02-18.28h16.29s-.02,13.58-.02,13.58l1.14-.33.02-13.81c0-.15-.06-.3-.17-.4s-.25-.17-.4-.17H1.98s0-.01,0-.01c-.31,0-.57.25-.57.57l-.03,19.41v2.52s0,0,0,0c0,1.63,1.32,2.96,2.95,2.96h5.99s-.18-.05-.18-.05Z"/>
    <g>
      <path class="cls-4" d="M14.7,20.83l-.48-.73.91-.6.48.73-.91.6ZM16.11,19.9l-.48-.73.91-.6.48.73-.91.6ZM17.52,18.98l-.48-.73.91-.6.48.73-.91.6Z"/>
      <rect class="cls-4" x="18.6" y="16.98" width=".99" height=".88" transform="translate(-6.43 13.37) rotate(-33.36)"/>
      <rect class="cls-4" x="10.11" y="21.12" width=".88" height="1" transform="translate(-11.42 31.41) rotate(-88.01)"/>
      <path class="cls-4" d="M1.98,27.75l-.57-.67.83-.71.57.67-.83.71ZM3.32,26.61l-.57-.67.83-.71.57.67-.83.71ZM4.66,25.46l-.57-.67.83-.71.57.67-.83.71ZM6,24.31l-.57-.67.83-.71.57.67-.83.71Z"/>
      <g>
        <path class="cls-5" d="M8.35,23.04c-.69,0-1.26-.56-1.26-1.26s.57-1.26,1.26-1.26,1.26.57,1.26,1.26-.56,1.26-1.26,1.26ZM8.35,21.17c-.33,0-.61.27-.61.61s.27.61.61.61.61-.27.61-.61-.27-.61-.61-.61Z"/>
        <path class="cls-5" d="M8.35,23.12c-.74,0-1.34-.6-1.34-1.34s.6-1.34,1.34-1.34,1.34.6,1.34,1.34-.6,1.34-1.34,1.34ZM8.35,20.6c-.65,0-1.18.53-1.18,1.18s.53,1.18,1.18,1.18,1.18-.53,1.18-1.18-.53-1.18-1.18-1.18ZM8.35,22.47c-.38,0-.69-.31-.69-.69s.31-.69.69-.69.69.31.69.69-.31.69-.69.69ZM8.35,21.25c-.29,0-.53.24-.53.53s.24.53.53.53.53-.24.53-.53-.24-.53-.53-.53Z"/>
      </g>
      <g>
        <path class="cls-5" d="M12.74,23.04c-.69,0-1.26-.56-1.26-1.26s.57-1.26,1.26-1.26,1.26.57,1.26,1.26-.56,1.26-1.26,1.26ZM12.74,21.17c-.33,0-.61.27-.61.61s.27.61.61.61.61-.27.61-.61-.27-.61-.61-.61Z"/>
        <path class="cls-5" d="M12.74,23.12c-.74,0-1.34-.6-1.34-1.34s.6-1.34,1.34-1.34,1.34.6,1.34,1.34-.6,1.34-1.34,1.34ZM12.74,20.6c-.65,0-1.18.53-1.18,1.18s.53,1.18,1.18,1.18,1.18-.53,1.18-1.18-.53-1.18-1.18-1.18ZM12.74,22.47c-.38,0-.69-.31-.69-.69s.31-.69.69-.69.69.31.69.69-.31.69-.69.69ZM12.74,21.25c-.29,0-.53.24-.53.53s.24.53.53.53.53-.24.53-.53-.24-.53-.53-.53Z"/>
      </g>
    </g>
    <g>
      <path class="cls-1" d="M20.53,5.45l-.22-.04.21,1.14.09.03h0c.72.21,1.29.69,1.61,1.35.32.67.34,1.45.05,2.15l-.04.09.77.88.11-.2c.58-1.05.62-2.33.1-3.4-.51-1.05-1.5-1.8-2.68-2.01Z"/>
      <path class="cls-1" d="M20.58,2.87h-.2s.2,1.09.2,1.09h.12c1.72.13,3.25,1.16,4,2.7.76,1.57.61,3.43-.39,4.87l-.07.1.73.84.12-.16c1.34-1.79,1.56-4.14.59-6.13-.95-1.96-2.91-3.24-5.1-3.32Z"/>
      <path class="cls-1" d="M28.37,5.06c-1.38-2.84-4.33-4.63-7.5-4.56h-.18s.19,1.09.19,1.09h.13c2.7-.02,5.21,1.54,6.38,3.95,1.19,2.46.84,5.42-.89,7.54l-.08.1.72.83.12-.14c2.08-2.46,2.52-5.92,1.12-8.81Z"/>
    </g>
  </g>
</svg>