<?xml version="1.0" encoding="UTF-8"?>
<svg id="Calque_2" data-name="Calque 2" xmlns="http://www.w3.org/2000/svg" xmlns:xlink="http://www.w3.org/1999/xlink" viewBox="0 0 50.24 40.85">
  <defs>
    <style>
      .cls-1 {
        clip-path: url(#clippath-2);
      }

      .cls-1, .cls-2, .cls-3, .cls-4, .cls-5, .cls-6, .cls-7 {
        stroke: #000;
        stroke-miterlimit: 10;
        stroke-width: 2px;
      }

      .cls-1, .cls-3, .cls-6, .cls-7, .cls-8 {
        fill: #ef7e67;
      }

      .cls-2 {
        fill: #4a494a;
      }

      .cls-3 {
        clip-path: url(#clippath-4);
      }

      .cls-9 {
        isolation: isolate;
      }

      .cls-10 {
        clip-path: url(#clippath-1);
      }

      .cls-4 {
        fill: none;
      }

      .cls-5 {
        fill: #4a4a49;
      }

      .cls-11 {
        clip-path: url(#clippath-3);
      }

      .cls-12 {
        clip-path: url(#clippath-5);
      }

      .cls-7 {
        clip-path: url(#clippath);
      }
    </style>
    <clipPath id="clippath">
      <path class="cls-6" d="M25.23,17.88c.17,0,.35.02.52.05.87.16,1.62.72,2.05,1.53.51.95.76,2.07,1,3.23.37,1.85.72,3.97.2,5.71-.32,1.06-.91,1.57-1.59,2.16l-.17.14c-.59.51-.73,1.57-.31,2.31.1.19.26.31.44.46.14.12.31.25.45.43.36.44.65,1.03.77,1.63.19.92-.05,2-.63,2.74-.76.98-2.03,1.44-3.29,1.18-1.25-.25-2.23-1.16-2.55-2.36-.21-.72-.16-1.55.13-2.26h0c.2-.49.54-.85.84-1.16.26-.28.51-.53.65-.86.26-.62.11-1.49-.35-1.94-.14-.14-.29-.28-.43-.41-.65-.61-1.27-1.18-1.54-2.22-.39-1.48-.14-3.27.06-4.72l.04-.29c.25-1.84.63-3.68,1.74-4.62.56-.48,1.25-.73,1.94-.73ZM25.38,38.72c.77,0,1.49-.34,1.96-.94.43-.55.62-1.39.48-2.08-.1-.48-.32-.95-.6-1.28-.11-.13-.23-.22-.35-.32-.21-.17-.45-.37-.63-.69-.6-1.06-.39-2.55.48-3.31l.17-.15c.66-.57,1.1-.95,1.35-1.79.47-1.56.13-3.57-.22-5.32-.22-1.1-.45-2.15-.92-3-.32-.6-.87-1.01-1.5-1.12-.63-.12-1.27.06-1.79.51-1.03.87-1.32,3.06-1.46,4.12l-.04.29c-.2,1.45-.42,3.08-.08,4.41.21.82.7,1.27,1.31,1.84.15.14.3.28.45.43.69.69.91,1.9.52,2.82-.2.46-.51.78-.81,1.09-.28.29-.54.56-.68.91-.22.55-.26,1.19-.1,1.75.25.93.97,1.59,1.94,1.79.18.04.36.05.54.05Z"/>
    </clipPath>
    <clipPath id="clippath-1">
      <path class="cls-7" d="M25.39,39.85c-.25,0-.51-.03-.77-.08-1.37-.28-2.45-1.27-2.8-2.59-.22-.79-.17-1.69.15-2.47.22-.55.6-.94.9-1.26.26-.27.48-.5.59-.77.21-.5.09-1.22-.28-1.58-.14-.14-.27-.26-.41-.39-.67-.63-1.35-1.26-1.64-2.39-.4-1.54-.15-3.37.05-4.84l.04-.3c.26-1.91.66-3.81,1.85-4.82.77-.65,1.77-.94,2.73-.76.97.18,1.8.8,2.28,1.7.54.99.79,2.13,1.03,3.32.38,1.89.74,4.06.2,5.87-.34,1.15-.99,1.71-1.68,2.31l-.17.15c-.47.41-.58,1.3-.24,1.91.08.13.2.24.36.37.15.13.33.27.5.47.4.48.71,1.12.84,1.78.21,1.01-.06,2.19-.69,3-.68.88-1.73,1.37-2.84,1.37ZM25.23,18.2c-.62,0-1.24.23-1.74.66-1.03.87-1.39,2.64-1.63,4.42l-.04.29c-.19,1.42-.43,3.18-.06,4.59.25.95.8,1.47,1.44,2.07.15.14.3.27.44.42.55.55.73,1.56.41,2.3-.16.38-.44.67-.71.95-.3.32-.6.63-.78,1.06-.26.65-.31,1.4-.12,2.05.29,1.09,1.17,1.9,2.3,2.13,1.15.23,2.28-.17,2.97-1.06.52-.67.74-1.64.57-2.47-.12-.55-.37-1.1-.71-1.49-.13-.15-.27-.27-.41-.38-.19-.16-.39-.32-.52-.55-.5-.88-.33-2.1.38-2.72l.17-.14c.67-.58,1.2-1.04,1.49-2.01.5-1.67.15-3.74-.21-5.55-.23-1.13-.47-2.22-.96-3.14-.39-.72-1.06-1.22-1.83-1.37-.15-.03-.3-.04-.46-.04ZM25.38,39.05c-.2,0-.4-.02-.6-.06-1.09-.22-1.91-.98-2.19-2.02-.18-.62-.14-1.33.12-1.95.17-.41.46-.72.75-1.01.28-.29.57-.59.74-1,.35-.81.15-1.87-.45-2.47-.14-.14-.28-.27-.42-.4-.65-.61-1.18-1.11-1.42-2.01-.36-1.39-.13-3.06.07-4.53l.04-.29c.15-1.09.45-3.37,1.57-4.32.6-.51,1.33-.71,2.06-.58.73.14,1.35.61,1.72,1.29.48.89.72,1.97.95,3.1.36,1.8.7,3.85.21,5.48-.28.93-.77,1.35-1.44,1.94l-.17.15c-.76.67-.94,1.97-.41,2.91.15.26.35.43.55.59.15.13.28.23.39.36.32.38.56.9.67,1.43.16.78-.05,1.72-.54,2.35-.53.68-1.33,1.06-2.22,1.06ZM25.22,19c-.43,0-.85.16-1.21.47-.93.79-1.22,2.9-1.35,3.91l-.04.29c-.19,1.42-.41,3.02-.08,4.28.19.72.62,1.13,1.21,1.68.17.15.31.29.46.43.78.78,1.03,2.14.59,3.18-.22.51-.57.87-.87,1.19-.25.26-.49.52-.61.81-.2.49-.23,1.05-.09,1.54.21.81.85,1.39,1.69,1.56.85.18,1.68-.13,2.18-.77.37-.47.54-1.22.42-1.82-.09-.43-.29-.84-.54-1.14-.08-.1-.18-.18-.28-.26-.25-.2-.52-.43-.73-.8-.68-1.19-.43-2.86.55-3.71l.17-.15c.64-.55,1.02-.89,1.25-1.64.45-1.49.12-3.45-.23-5.17-.21-1.07-.44-2.1-.88-2.91-.28-.51-.74-.86-1.27-.96-.11-.02-.21-.03-.32-.03Z"/>
    </clipPath>
    <clipPath id="clippath-2">
      <path class="cls-6" d="M16.83,13.84h16.84v30.47h-16.84V13.84ZM32.87,14.64h-15.23v28.86h15.23V14.64Z"/>
    </clipPath>
    <clipPath id="clippath-3">
      <path class="cls-1" d="M33.99,44.63h-17.49V13.51h17.49v31.12ZM17.16,43.98h16.19V14.16h-16.19v29.82ZM33.19,43.82h-15.88V14.31h15.88v29.51ZM17.96,43.18h14.58V14.96h-14.58v28.21Z"/>
    </clipPath>
    <clipPath id="clippath-4">
      <path class="cls-6" d="M20.84,17.84h8.82v22.45h-8.82v-22.45ZM28.86,18.65h-7.22v20.85h7.22v-20.85Z"/>
    </clipPath>
    <clipPath id="clippath-5">
      <path class="cls-3" d="M29.98,40.62h-9.47v-23.1h9.47v23.1ZM21.16,39.97h8.17v-21.8h-8.17v21.8ZM29.18,39.82h-7.86v-21.49h7.86v21.49ZM21.97,39.17h6.57v-20.2h-6.57v20.2Z"/>
    </clipPath>
  </defs>
  <g id="Contenu">
    <g>
      <path class="cls-5" d="M4.65,14.49c-.21,0-.42-.08-.57-.25C1.95,11.96-1.03,6.57,2.97,2.58c2.7-2.7,5.37-1.45,8.76.13,3.22,1.5,7.23,3.37,13.34,3.37.43,0,.78.35.78.78s-.35.78-.78.78c-6.45,0-10.81-2.03-13.99-3.52-3.52-1.64-5.16-2.29-7.01-.44-3.93,3.93.95,9.29,1.16,9.51.29.31.27.8-.04,1.1-.15.14-.34.21-.53.21Z"/>
      <path class="cls-5" d="M22.04,20.79c-5.78-6.04-6.31-14.85-6.33-15.24-.02-.43.3-.79.73-.82.42-.01.79.31.82.73,0,.09.52,8.41,5.71,14.05"/>
      <path class="cls-6" d="M6.38,18.98c-1.82,0-3.3-1.48-3.3-3.3s1.48-3.3,3.3-3.3,3.3,1.48,3.3,3.3-1.48,3.3-3.3,3.3ZM6.38,13.92c-.97,0-1.75.79-1.75,1.75s.79,1.75,1.75,1.75,1.75-.79,1.75-1.75-.78-1.75-1.75-1.75Z"/>
      <path class="cls-5" d="M45.59,14.49c-.19,0-.38-.07-.53-.21-.31-.29-.33-.78-.04-1.1.21-.23,5.09-5.58,1.16-9.51-1.85-1.85-3.49-1.21-7.01.44-3.18,1.48-7.55,3.52-13.99,3.52-.43,0-.78-.35-.78-.78s.35-.78.78-.78c6.1,0,10.11-1.87,13.34-3.37,3.39-1.58,6.06-2.83,8.76-.13,3.99,3.99,1.01,9.38-1.12,11.67-.15.16-.36.25-.57.25Z"/>
      <path class="cls-5" d="M27.53,19.22c4.96-5.63,5.45-13.67,5.46-13.76.02-.43.37-.75.82-.73.43.02.76.39.73.82-.02.39-.54,9.1-6.23,15.14"/>
      <path class="cls-6" d="M43.87,18.98c-1.82,0-3.3-1.48-3.3-3.3s1.48-3.3,3.3-3.3,3.3,1.48,3.3,3.3-1.48,3.3-3.3,3.3ZM43.87,13.92c-.97,0-1.75.79-1.75,1.75s.79,1.75,1.75,1.75,1.75-.79,1.75-1.75-.79-1.75-1.75-1.75Z"/>
      <g>
        <g>
          <path class="cls-2" d="M22.8,35.63h5.04c.2,0,.36.16.36.36s-.16.36-.36.36h-5.04c-.2,0-.36-.16-.36-.36s.16-.36.36-.36Z"/>
          <path class="cls-2" d="M27.83,36.67h-5.04c-.38,0-.69-.31-.69-.69s.31-.69.69-.69h5.04c.38,0,.69.31.69.69s-.31.69-.69.69ZM22.8,35.95s-.04.02-.04.04l5.07.04-5.04-.07Z"/>
        </g>
        <g>
          <path class="cls-8" d="M25.23,17.88c.17,0,.35.02.52.05.87.16,1.62.72,2.05,1.53.51.95.76,2.07,1,3.23.37,1.85.72,3.97.2,5.71-.32,1.06-.91,1.57-1.59,2.16l-.17.14c-.59.51-.73,1.57-.31,2.31.1.19.26.31.44.46.14.12.31.25.45.43.36.44.65,1.03.77,1.63.19.92-.05,2-.63,2.74-.76.98-2.03,1.44-3.29,1.18-1.25-.25-2.23-1.16-2.55-2.36-.21-.72-.16-1.55.13-2.26h0c.2-.49.54-.85.84-1.16.26-.28.51-.53.65-.86.26-.62.11-1.49-.35-1.94-.14-.14-.29-.28-.43-.41-.65-.61-1.27-1.18-1.54-2.22-.39-1.48-.14-3.27.06-4.72l.04-.29c.25-1.84.63-3.68,1.74-4.62.56-.48,1.25-.73,1.94-.73ZM25.38,38.72c.77,0,1.49-.34,1.96-.94.43-.55.62-1.39.48-2.08-.1-.48-.32-.95-.6-1.28-.11-.13-.23-.22-.35-.32-.21-.17-.45-.37-.63-.69-.6-1.06-.39-2.55.48-3.31l.17-.15c.66-.57,1.1-.95,1.35-1.79.47-1.56.13-3.57-.22-5.32-.22-1.1-.45-2.15-.92-3-.32-.6-.87-1.01-1.5-1.12-.63-.12-1.27.06-1.79.51-1.03.87-1.32,3.06-1.46,4.12l-.04.29c-.2,1.45-.42,3.08-.08,4.41.21.82.7,1.27,1.31,1.84.15.14.3.28.45.43.69.69.91,1.9.52,2.82-.2.46-.51.78-.81,1.09-.28.29-.54.56-.68.91-.22.55-.26,1.19-.1,1.75.25.93.97,1.59,1.94,1.79.18.04.36.05.54.05Z"/>
          <path class="cls-8" d="M25.39,39.85c-.25,0-.51-.03-.77-.08-1.37-.28-2.45-1.27-2.8-2.59-.22-.79-.17-1.69.15-2.47.22-.55.6-.94.9-1.26.26-.27.48-.5.59-.77.21-.5.09-1.22-.28-1.58-.14-.14-.27-.26-.41-.39-.67-.63-1.35-1.26-1.64-2.39-.4-1.54-.15-3.37.05-4.84l.04-.3c.26-1.91.66-3.81,1.85-4.82.77-.65,1.77-.94,2.73-.76.97.18,1.8.8,2.28,1.7.54.99.79,2.13,1.03,3.32.38,1.89.74,4.06.2,5.87-.34,1.15-.99,1.71-1.68,2.31l-.17.15c-.47.41-.58,1.3-.24,1.91.08.13.2.24.36.37.15.13.33.27.5.47.4.48.71,1.12.84,1.78.21,1.01-.06,2.19-.69,3-.68.88-1.73,1.37-2.84,1.37ZM25.23,18.2c-.62,0-1.24.23-1.74.66-1.03.87-1.39,2.64-1.63,4.42l-.04.29c-.19,1.42-.43,3.18-.06,4.59.25.95.8,1.47,1.44,2.07.15.14.3.27.44.42.55.55.73,1.56.41,2.3-.16.38-.44.67-.71.95-.3.32-.6.63-.78,1.06-.26.65-.31,1.4-.12,2.05.29,1.09,1.17,1.9,2.3,2.13,1.15.23,2.28-.17,2.97-1.06.52-.67.74-1.64.57-2.47-.12-.55-.37-1.1-.71-1.49-.13-.15-.27-.27-.41-.38-.19-.16-.39-.32-.52-.55-.5-.88-.33-2.1.38-2.72l.17-.14c.67-.58,1.2-1.04,1.49-2.01.5-1.67.15-3.74-.21-5.55-.23-1.13-.47-2.22-.96-3.14-.39-.72-1.06-1.22-1.83-1.37-.15-.03-.3-.04-.46-.04ZM25.38,39.05c-.2,0-.4-.02-.6-.06-1.09-.22-1.91-.98-2.19-2.02-.18-.62-.14-1.33.12-1.95.17-.41.46-.72.75-1.01.28-.29.57-.59.74-1,.35-.81.15-1.87-.45-2.47-.14-.14-.28-.27-.42-.4-.65-.61-1.18-1.11-1.42-2.01-.36-1.39-.13-3.06.07-4.53l.04-.29c.15-1.09.45-3.37,1.57-4.32.6-.51,1.33-.71,2.06-.58.73.14,1.35.61,1.72,1.29.48.89.72,1.97.95,3.1.36,1.8.7,3.85.21,5.48-.28.93-.77,1.35-1.44,1.94l-.17.15c-.76.67-.94,1.97-.41,2.91.15.26.35.43.55.59.15.13.28.23.39.36.32.38.56.9.67,1.43.16.78-.05,1.72-.54,2.35-.53.68-1.33,1.06-2.22,1.06ZM25.22,19c-.43,0-.85.16-1.21.47-.93.79-1.22,2.9-1.35,3.91l-.04.29c-.19,1.42-.41,3.02-.08,4.28.19.72.62,1.13,1.21,1.68.17.15.31.29.46.43.78.78,1.03,2.14.59,3.18-.22.51-.57.87-.87,1.19-.25.26-.49.52-.61.81-.2.49-.23,1.05-.09,1.54.21.81.85,1.39,1.69,1.56.85.18,1.68-.13,2.18-.77.37-.47.54-1.22.42-1.82-.09-.43-.29-.84-.54-1.14-.08-.1-.18-.18-.28-.26-.25-.2-.52-.43-.73-.8-.68-1.19-.43-2.86.55-3.71l.17-.15c.64-.55,1.02-.89,1.25-1.64.45-1.49.12-3.45-.23-5.17-.21-1.07-.44-2.1-.88-2.91-.28-.51-.74-.86-1.27-.96-.11-.02-.21-.03-.32-.03Z"/>
          <g class="cls-10">
            <g class="cls-9">
              <g>
                <path class="cls-8" d="M16.83,13.84h16.84v30.47h-16.84V13.84ZM32.87,14.64h-15.23v28.86h15.23V14.64Z"/>
                <path class="cls-8" d="M33.99,44.63h-17.49V13.51h17.49v31.12ZM17.16,43.98h16.19V14.16h-16.19v29.82ZM33.19,43.82h-15.88V14.31h15.88v29.51ZM17.96,43.18h14.58V14.96h-14.58v28.21Z"/>
                <g class="cls-11">
                  <g>
                    <path class="cls-8" d="M20.84,17.84h8.82v22.45h-8.82v-22.45ZM28.86,18.65h-7.22v20.85h7.22v-20.85Z"/>
                    <path class="cls-8" d="M29.98,40.62h-9.47v-23.1h9.47v23.1ZM21.16,39.97h8.17v-21.8h-8.17v21.8ZM29.18,39.82h-7.86v-21.49h7.86v21.49ZM21.97,39.17h6.57v-20.2h-6.57v20.2Z"/>
                    <g class="cls-12">
                      <g>
                        <path class="cls-6" d="M17.23,13.87h16.03v29.66h-16.03V13.87ZM32.47,14.67h-14.43v28.06h14.43V14.67Z"/>
                        <path class="cls-6" d="M33.59,43.86h-16.68V13.54h16.68v30.31ZM17.56,43.21h15.39V14.19h-15.39v29.02ZM32.79,43.06h-15.08V14.35h15.08v28.71ZM18.36,42.41h13.78V14.99h-13.78v27.41Z"/>
                      </g>
                    </g>
                    <path class="cls-4" d="M20.84,17.84h8.82v22.45h-8.82v-22.45ZM28.86,18.65h-7.22v20.85h7.22v-20.85Z"/>
                    <path class="cls-4" d="M29.98,40.62h-9.47v-23.1h9.47v23.1ZM21.16,39.97h8.17v-21.8h-8.17v21.8ZM29.18,39.82h-7.86v-21.49h7.86v21.49ZM21.97,39.17h6.57v-20.2h-6.57v20.2Z"/>
                  </g>
                </g>
                <path class="cls-4" d="M16.83,13.84h16.84v30.47h-16.84V13.84ZM32.87,14.64h-15.23v28.86h15.23V14.64Z"/>
                <path class="cls-4" d="M33.99,44.63h-17.49V13.51h17.49v31.12ZM17.16,43.98h16.19V14.16h-16.19v29.82ZM33.19,43.82h-15.88V14.31h15.88v29.51ZM17.96,43.18h14.58V14.96h-14.58v28.21Z"/>
              </g>
            </g>
          </g>
          <path class="cls-4" d="M25.23,17.88c.17,0,.35.02.52.05.87.16,1.62.72,2.05,1.53.51.95.76,2.07,1,3.23.37,1.85.72,3.97.2,5.71-.32,1.06-.91,1.57-1.59,2.16l-.17.14c-.59.51-.73,1.57-.31,2.31.1.19.26.31.44.46.14.12.31.25.45.43.36.44.65,1.03.77,1.63.19.92-.05,2-.63,2.74-.76.98-2.03,1.44-3.29,1.18-1.25-.25-2.23-1.16-2.55-2.36-.21-.72-.16-1.55.13-2.26h0c.2-.49.54-.85.84-1.16.26-.28.51-.53.65-.86.26-.62.11-1.49-.35-1.94-.14-.14-.29-.28-.43-.41-.65-.61-1.27-1.18-1.54-2.22-.39-1.48-.14-3.27.06-4.72l.04-.29c.25-1.84.63-3.68,1.74-4.62.56-.48,1.25-.73,1.94-.73ZM25.38,38.72c.77,0,1.49-.34,1.96-.94.43-.55.62-1.39.48-2.08-.1-.48-.32-.95-.6-1.28-.11-.13-.23-.22-.35-.32-.21-.17-.45-.37-.63-.69-.6-1.06-.39-2.55.48-3.31l.17-.15c.66-.57,1.1-.95,1.35-1.79.47-1.56.13-3.57-.22-5.32-.22-1.1-.45-2.15-.92-3-.32-.6-.87-1.01-1.5-1.12-.63-.12-1.27.06-1.79.51-1.03.87-1.32,3.06-1.46,4.12l-.04.29c-.2,1.45-.42,3.08-.08,4.41.21.82.7,1.27,1.31,1.84.15.14.3.28.45.43.69.69.91,1.9.52,2.82-.2.46-.51.78-.81,1.09-.28.29-.54.56-.68.91-.22.55-.26,1.19-.1,1.75.25.93.97,1.59,1.94,1.79.18.04.36.05.54.05Z"/>
          <path class="cls-4" d="M25.39,39.85c-.25,0-.51-.03-.77-.08-1.37-.28-2.45-1.27-2.8-2.59-.22-.79-.17-1.69.15-2.47.22-.55.6-.94.9-1.26.26-.27.48-.5.59-.77.21-.5.09-1.22-.28-1.58-.14-.14-.27-.26-.41-.39-.67-.63-1.35-1.26-1.64-2.39-.4-1.54-.15-3.37.05-4.84l.04-.3c.26-1.91.66-3.81,1.85-4.82.77-.65,1.77-.94,2.73-.76.97.18,1.8.8,2.28,1.7.54.99.79,2.13,1.03,3.32.38,1.89.74,4.06.2,5.87-.34,1.15-.99,1.71-1.68,2.31l-.17.15c-.47.41-.58,1.3-.24,1.91.08.13.2.24.36.37.15.13.33.27.5.47.4.48.71,1.12.84,1.78.21,1.01-.06,2.19-.69,3-.68.88-1.73,1.37-2.84,1.37ZM25.23,18.2c-.62,0-1.24.23-1.74.66-1.03.87-1.39,2.64-1.63,4.42l-.04.29c-.19,1.42-.43,3.18-.06,4.59.25.95.8,1.47,1.44,2.07.15.14.3.27.44.42.55.55.73,1.56.41,2.3-.16.38-.44.67-.71.95-.3.32-.6.63-.78,1.06-.26.65-.31,1.4-.12,2.05.29,1.09,1.17,1.9,2.3,2.13,1.15.23,2.28-.17,2.97-1.06.52-.67.74-1.64.57-2.47-.12-.55-.37-1.1-.71-1.49-.13-.15-.27-.27-.41-.38-.19-.16-.39-.32-.52-.55-.5-.88-.33-2.1.38-2.72l.17-.14c.67-.58,1.2-1.04,1.49-2.01.5-1.67.15-3.74-.21-5.55-.23-1.13-.47-2.22-.96-3.14-.39-.72-1.06-1.22-1.83-1.37-.15-.03-.3-.04-.46-.04ZM25.38,39.05c-.2,0-.4-.02-.6-.06-1.09-.22-1.91-.98-2.19-2.02-.18-.62-.14-1.33.12-1.95.17-.41.46-.72.75-1.01.28-.29.57-.59.74-1,.35-.81.15-1.87-.45-2.47-.14-.14-.28-.27-.42-.4-.65-.61-1.18-1.11-1.42-2.01-.36-1.39-.13-3.06.07-4.53l.04-.29c.15-1.09.45-3.37,1.57-4.32.6-.51,1.33-.71,2.06-.58.73.14,1.35.61,1.72,1.29.48.89.72,1.97.95,3.1.36,1.8.7,3.85.21,5.48-.28.93-.77,1.35-1.44,1.94l-.17.15c-.76.67-.94,1.97-.41,2.91.15.26.35.43.55.59.15.13.28.23.39.36.32.38.56.9.67,1.43.16.78-.05,1.72-.54,2.35-.53.68-1.33,1.06-2.22,1.06ZM25.22,19c-.43,0-.85.16-1.21.47-.93.79-1.22,2.9-1.35,3.91l-.04.29c-.19,1.42-.41,3.02-.08,4.28.19.72.62,1.13,1.21,1.68.17.15.31.29.46.43.78.78,1.03,2.14.59,3.18-.22.51-.57.87-.87,1.19-.25.26-.49.52-.61.81-.2.49-.23,1.05-.09,1.54.21.81.85,1.39,1.69,1.56.85.18,1.68-.13,2.18-.77.37-.47.54-1.22.42-1.82-.09-.43-.29-.84-.54-1.14-.08-.1-.18-.18-.28-.26-.25-.2-.52-.43-.73-.8-.68-1.19-.43-2.86.55-3.71l.17-.15c.64-.55,1.02-.89,1.25-1.64.45-1.49.12-3.45-.23-5.17-.21-1.07-.44-2.1-.88-2.91-.28-.51-.74-.86-1.27-.96-.11-.02-.21-.03-.32-.03Z"/>
        </g>
      </g>
    </g>
  </g>
</svg>